<?xml version="1.0" standalone="no"?>
<!DOCTYPE svg PUBLIC "-//W3C//DTD SVG 20010904//EN"
 "http://www.w3.org/TR/2001/REC-SVG-20010904/DTD/svg10.dtd">
<svg version="1.0" xmlns="http://www.w3.org/2000/svg"
 width="649.000000pt" height="649.000000pt" viewBox="0 0 649.000000 649.000000"
 preserveAspectRatio="xMidYMid meet">
<metadata>
Created by potrace 1.11, written by Peter Selinger 2001-2013
</metadata>
<g transform="translate(0.000000,649.000000) scale(0.100000,-0.100000)"
fill="#000000" stroke="none">
<path d="M3065 4955 c-125 -30 -200 -90 -336 -270 -224 -297 -402 -615 -613
-1100 -32 -71 -63 -143 -71 -160 -7 -16 -39 -91 -70 -165 -31 -74 -63 -148
-70 -165 -8 -16 -42 -93 -75 -170 -81 -185 -250 -514 -331 -643 -65 -105 -145
-204 -180 -222 -50 -27 -277 97 -422 230 -80 74 -174 196 -211 275 -100 210
-87 445 31 575 52 59 98 53 181 -23 80 -73 113 -88 210 -92 231 -12 455 199
361 338 -55 81 -176 170 -283 207 -171 60 -401 65 -571 12 -95 -30 -222 -96
-283 -147 -147 -123 -238 -252 -287 -406 -53 -168 -54 -363 -3 -528 96 -312
384 -623 728 -788 180 -86 377 -116 563 -87 311 50 522 218 756 604 90 148
245 453 330 650 35 80 72 163 82 184 11 22 19 43 19 47 0 5 13 36 29 71 16 35
70 160 121 278 97 228 297 640 352 727 18 28 38 59 43 68 9 15 29 -10 126
-156 307 -462 451 -771 524 -1123 84 -408 -50 -731 -375 -904 -141 -75 -325
-116 -415 -91 -42 12 -101 61 -111 92 -61 199 -450 182 -580 -25 -42 -66 -42
-108 -1 -191 107 -213 325 -322 642 -320 81 0 189 9 235 18 13 2 42 7 64 11
22 3 44 8 48 11 5 2 20 6 33 9 53 9 185 55 281 97 276 121 521 328 660 557
106 176 156 367 155 596 0 114 -6 180 -26 292 -64 359 -290 828 -648 1342
-160 230 -315 436 -339 452 -62 40 -183 55 -273 33z"/>
<path d="M5343 2298 c-19 -25 -21 -46 -6 -67 33 -49 111 5 79 54 -16 24 -59
31 -73 13z"/>
<path d="M4543 2145 c-66 -34 -104 -104 -104 -193 -1 -144 85 -222 231 -209
87 8 107 19 107 60 0 34 -1 35 -26 25 -44 -17 -118 -21 -156 -8 -29 9 -41 22
-55 53 -10 23 -16 45 -14 49 3 4 65 8 138 8 l133 0 -2 53 c-4 81 -32 131 -90
160 -35 17 -130 18 -162 2z m129 -59 c20 -15 38 -51 38 -75 0 -20 -6 -21 -91
-21 l-91 0 6 33 c12 62 90 98 138 63z"/>
<path d="M4973 2144 c-58 -25 -82 -88 -56 -142 12 -25 36 -42 109 -78 101 -49
113 -65 73 -105 -24 -24 -91 -25 -148 -2 -18 7 -36 13 -40 13 -5 0 -6 -29 -2
-61 4 -28 162 -37 223 -12 42 17 79 79 72 120 -10 54 -28 69 -151 123 -53 24
-75 52 -54 73 15 15 95 17 131 4 34 -13 60 3 60 38 0 17 -8 24 -32 31 -55 13
-151 12 -185 -2z"/>
<path d="M5330 1955 l0 -205 43 0 44 0 0 205 0 205 -43 0 -44 0 0 -205z"/>
<path d="M5632 2144 c-63 -27 -91 -118 -57 -184 8 -16 23 -33 32 -39 17 -9 16
-11 -5 -33 -25 -28 -29 -70 -7 -92 19 -18 19 -26 1 -26 -28 0 -66 -51 -66 -89
1 -77 62 -112 191 -107 119 4 181 39 195 112 8 44 -6 83 -40 108 -21 16 -48
22 -118 26 -72 4 -93 9 -102 22 -17 28 11 47 72 49 91 4 158 71 146 145 -10
59 -9 69 6 70 8 1 22 2 31 3 10 1 15 9 14 24 -2 22 -4 22 -131 23 -90 1 -139
-3 -162 -12z m125 -42 c26 -16 41 -62 32 -100 -9 -42 -32 -62 -70 -62 -47 0
-73 31 -73 85 0 37 5 51 23 66 24 19 67 25 88 11z m69 -369 c28 -28 9 -74 -37
-91 -43 -16 -128 -15 -153 2 -35 23 -39 54 -10 83 22 22 31 24 105 22 54 -1
85 -7 95 -16z"/>
<path d="M6041 1955 l0 -205 43 0 44 0 1 132 c1 107 4 137 19 162 22 37 56 51
104 42 51 -9 58 -34 58 -196 l0 -140 44 0 44 0 -2 164 c-2 179 -9 202 -64 229
-59 29 -152 16 -195 -27 -16 -17 -18 -16 -23 13 -6 27 -11 31 -40 31 l-33 0 0
-205z"/>
</g>
</svg>
